<?xml version="1.0" encoding="utf-8"?>
<!-- Generator: Adobe Illustrator 25.0.0, SVG Export Plug-In . SVG Version: 6.00 Build 0)  -->
<svg version="1.1" id="katman_1" xmlns="http://www.w3.org/2000/svg" xmlns:xlink="http://www.w3.org/1999/xlink" x="0px" y="0px"
	 viewBox="0 0 640 512" style="enable-background:new 0 0 640 512;" xml:space="preserve">
<style type="text/css">
	.st0{opacity:0.6;fill:#1C4784;}
</style>
<path class="st0" d="M96,128C96,57.3,153.3,0,224,0s128,57.3,128,128s-57.3,128-128,128S96,198.7,96,128z M0,482.3
	C0,383.8,79.8,304,178.3,304h91.4c98.5,0,178.3,79.8,178.3,178.3c0,16.4-13.3,29.7-29.7,29.7H29.7C13.3,512,0,498.7,0,482.3z
	 M609.3,512H471.4c5.4-9.4,8.6-20.3,8.6-32v-8c0-60.7-27.1-115.2-69.8-151.8c2.4-0.1,4.7-0.2,7.1-0.2h61.4
	c89.1,0,161.3,72.2,161.3,161.3C640,498.3,626.2,512,609.3,512z M432,256c-31,0-59-12.6-79.3-32.9c19.7-26.6,31.3-59.5,31.3-95.1
	c0-26.8-6.6-52.1-18.3-74.3C384.3,40.1,407.2,32,432,32c61.9,0,112,50.1,112,112S493.9,256,432,256z"/>
</svg>
