<?xml version="1.0" encoding="utf-8"?>
<!-- Generator: Adobe Illustrator 25.0.0, SVG Export Plug-In . SVG Version: 6.00 Build 0)  -->
<svg version="1.1" id="katman_1" xmlns="http://www.w3.org/2000/svg" xmlns:xlink="http://www.w3.org/1999/xlink" x="0px" y="0px"
	 viewBox="0 0 496 512" style="enable-background:new 0 0 496 512;" xml:space="preserve">
<style type="text/css">
	.st0{fill:#FFFFFF;}
</style>
<path class="st0" d="M211.9,314.6c0,0.9-1,1.6-2.3,1.6c-1.4,0.1-2.5-0.6-2.5-1.6c0-0.9,1-1.6,2.3-1.6
	C210.8,312.9,211.9,313.6,211.9,314.6z M198.3,312.6c-0.3,0.9,0.6,1.9,1.9,2.2c1.1,0.4,2.5,0,2.7-0.9s-0.6-1.9-1.9-2.3
	C199.9,311.3,198.6,311.8,198.3,312.6L198.3,312.6z M217.7,311.9c-1.3,0.3-2.2,1.1-2,2.2c0.1,0.9,1.3,1.4,2.6,1.1
	c1.3-0.3,2.2-1.1,2-2C220.2,312.3,219,311.8,217.7,311.9z M246.6,143.6c-60.9,0-107.5,46.2-107.5,107.2c0,48.7,30.7,90.4,74.4,105.1
	c5.6,1,7.6-2.5,7.6-5.3c0-2.7-0.1-17.7-0.1-27c0,0-30.7,6.6-37.2-13.1c0,0-5-12.8-12.2-16.1c0,0-10.1-6.9,0.7-6.8
	c0,0,10.9,0.9,17,11.3c9.6,17,25.7,12.1,32,9.2c1-7,3.9-11.9,7-14.8c-24.6-2.7-49.3-6.3-49.3-48.5c0-12.1,3.3-18.1,10.4-25.9
	c-1.1-2.9-4.9-14.6,1.1-29.8c9.2-2.9,30.3,11.9,30.3,11.9c8.8-2.5,18.2-3.7,27.6-3.7s18.8,1.3,27.6,3.7c0,0,21.1-14.8,30.3-11.9
	c6,15.2,2.3,27,1.1,29.8c7,7.8,11.3,13.8,11.3,25.9c0,42.4-25.9,45.8-50.4,48.5c4,3.5,7.5,10.1,7.5,20.4c0,14.8-0.1,33.1-0.1,36.7
	c0,2.9,2,6.3,7.6,5.3c43.9-14.6,73.7-56.3,73.7-105C356.9,189.9,307.5,143.6,246.6,143.6z M181.8,295.1c-0.6,0.4-0.4,1.4,0.3,2.3
	c0.7,0.7,1.7,1,2.3,0.4c0.6-0.4,0.4-1.4-0.3-2.3C183.4,294.8,182.3,294.5,181.8,295.1z M177,291.5c-0.3,0.6,0.1,1.3,1,1.7
	c0.7,0.4,1.6,0.3,1.9-0.3c0.3-0.6-0.1-1.3-1-1.7C178,291,177.3,291.1,177,291.5z M191.3,307.2c-0.7,0.6-0.4,1.9,0.6,2.7
	c1,1,2.3,1.1,2.9,0.4c0.6-0.6,0.3-1.9-0.6-2.7C193.1,306.6,191.8,306.5,191.3,307.2z M186.3,300.7c-0.7,0.4-0.7,1.6,0,2.6
	c0.7,1,1.9,1.4,2.5,1c0.7-0.6,0.7-1.7,0-2.7C188.1,300.6,187,300.1,186.3,300.7L186.3,300.7z"/>
</svg>
