<?xml version="1.0" encoding="utf-8"?>
<!-- Generator: Adobe Illustrator 25.0.0, SVG Export Plug-In . SVG Version: 6.00 Build 0)  -->
<svg version="1.1" id="katman_1" xmlns="http://www.w3.org/2000/svg" xmlns:xlink="http://www.w3.org/1999/xlink" x="0px" y="0px"
	 viewBox="0 0 640 512" style="enable-background:new 0 0 640 512;" xml:space="preserve">
<style type="text/css">
	.st0{opacity:0.6;fill:#1C4784;}
</style>
<path class="st0" d="M256,0h320c35.3,0,64,28.7,64,64v224c0,35.3-28.7,64-64,64H256c-35.3,0-64-28.7-64-64V64
	C192,28.7,220.7,0,256,0z M476,106.7C471.5,100,464,96,456,96s-15.5,4-20,10.7l-56,84L362.7,169c-4.6-5.7-11.5-9-18.7-9
	s-14.2,3.3-18.7,9l-64,80c-5.8,7.2-6.9,17.1-2.9,25.4S270.8,288,280,288h80h48h144c8.9,0,17-4.9,21.2-12.7s3.7-17.3-1.2-24.6
	L476,106.7L476,106.7z M336,96c0-17.7-14.3-32-32-32s-32,14.3-32,32s14.3,32,32,32S336,113.7,336,96z M64,128h96v256v32
	c0,17.7,14.3,32,32,32h128c17.7,0,32-14.3,32-32v-32h160v64c0,35.3-28.7,64-64,64H64c-35.3,0-64-28.7-64-64V192
	C0,156.7,28.7,128,64,128z M72,192c-8.8,0-16,7.2-16,16v16c0,8.8,7.2,16,16,16h16c8.8,0,16-7.2,16-16v-16c0-8.8-7.2-16-16-16H72z
	 M72,296c-8.8,0-16,7.2-16,16v16c0,8.8,7.2,16,16,16h16c8.8,0,16-7.2,16-16v-16c0-8.8-7.2-16-16-16H72z M72,400c-8.8,0-16,7.2-16,16
	v16c0,8.8,7.2,16,16,16h16c8.8,0,16-7.2,16-16v-16c0-8.8-7.2-16-16-16H72z M408,416v16c0,8.8,7.2,16,16,16h16c8.8,0,16-7.2,16-16
	v-16c0-8.8-7.2-16-16-16h-16C415.2,400,408,407.2,408,416z"/>
</svg>
